<svg width="37" height="36" viewBox="0 0 37 36" fill="none" xmlns="http://www.w3.org/2000/svg">
<rect x="0.439941" width="36" height="36" rx="18" fill="white" fill-opacity="0.5"/>
<path d="M26.2971 8H10.5828C9.37744 8 8.43994 8.98214 8.43994 10.1429V25.8571C8.43994 27.0625 9.37744 28 10.5828 28H16.6989V21.2143H13.8864V18H16.6989V15.5893C16.6989 12.8214 18.3507 11.2589 20.8507 11.2589C22.1007 11.2589 23.3507 11.4821 23.3507 11.4821V14.2054H21.9667C20.5828 14.2054 20.1364 15.0536 20.1364 15.9464V18H23.2167L22.7257 21.2143H20.1364V28H26.2971C27.4578 28 28.4399 27.0625 28.4399 25.8571V10.1429C28.4399 8.98214 27.4578 8 26.2971 8Z" fill="white"/>
</svg>
