<svg width="37" height="36" viewBox="0 0 37 36" fill="none" xmlns="http://www.w3.org/2000/svg">
<rect x="0.439941" width="36" height="36" rx="18" fill="white" fill-opacity="0.5"/>
<path d="M12.9142 28V14.6219H8.75314V28H12.9142ZM10.8113 12.8322C12.1536 12.8322 13.2274 11.7136 13.2274 10.3714C13.2274 9.07383 12.1536 8 10.8113 8C9.51377 8 8.43994 9.07383 8.43994 10.3714C8.43994 11.7136 9.51377 12.8322 10.8113 12.8322ZM28.4847 28V20.6622C28.4847 17.0828 27.6793 14.3087 23.4735 14.3087C21.4601 14.3087 20.1178 15.4273 19.5361 16.4564H19.4914V14.6219H15.5093V28H19.6704V21.3781C19.6704 19.6331 19.9836 17.9776 22.1312 17.9776C24.2789 17.9776 24.3236 19.9463 24.3236 21.5123V28H28.4847Z" fill="white"/>
</svg>
