<svg xmlns="http://www.w3.org/2000/svg" width="971" height="585" fill="none"><path fill="#23213B" d="M86.182 24.706c0-13.646 11.061-24.707 24.706-24.707h749.885c13.645 0 24.706 11.061 24.706 24.707v520.657H86.182V24.705ZM116.768 579.812c-.266.665-1.118 2.074-2.395 2.394-.133.931-.719 2.792-1.996 2.792H57.678c-1.278 0-1.863-1.861-1.996-2.792-1.278-.32-2.13-1.729-2.396-2.394h63.482ZM918.042 579.812c-.267.665-1.118 2.074-2.396 2.394-.133.931-.719 2.792-1.996 2.792h-54.699c-1.278 0-1.863-1.861-1.996-2.792-1.278-.32-2.13-1.729-2.396-2.394h63.483Z"/><path fill="#1C1B2D" d="M971.004 548.698v-3.727h-971v3.727c0 10.891 0 16.336 2.089 20.496a19.305 19.305 0 0 0 8.375 8.498c4.1 2.12 9.466 2.12 20.2 2.12H940.34c10.733 0 16.099 0 20.199-2.12a19.303 19.303 0 0 0 8.375-8.498c2.089-4.16 2.089-9.605 2.089-20.496Z"/><path fill="#353447" d="M401.294 544.971h168.887c0 7.271-5.894 13.166-13.166 13.166H414.461c-7.272 0-13.167-5.895-13.167-13.166Z"/><g clip-path="url(#a)"><path fill="#080356" d="M110.195 13.809c-6.189 0-11.207 4.997-11.207 11.162v489.56h774.043V24.971c0-6.165-5.018-11.162-11.207-11.162H526.286c-1.09 0-1.973.883-1.973 1.972v7.888a3.288 3.288 0 0 1-3.29 3.287h-70.39a3.946 3.946 0 0 1-3.948-3.944v-7.231c0-1.09-.883-1.972-1.973-1.972H110.195Z"/><g clip-path="url(#b)"><rect width="811" height="1284" x="81" y="-478" fill="url(#c)" rx="56"/><path stroke="url(#d)" d="M887.855 255.813 535.802 435.319c-32.376 16.508-52.756 49.764-52.756 86.087v234.2" opacity=".4"/><path stroke="url(#e)" d="m89.98 171.594 464.673 231.204c18.768 9.337 30.632 28.485 30.632 49.437v297.159" opacity=".4"/><path stroke="url(#f)" d="m379.426 16.271 480.536 238.805c18.781 9.333 30.656 28.487 30.656 49.447v499.406" opacity=".4"/><path stroke="url(#g)" d="M177.712 111.535 658.248 350.34c18.782 9.333 30.656 28.487 30.656 49.448V806" opacity=".4"/><path stroke="url(#h)" stroke-dasharray="0.91 1" d="M177.712 111.535 658.248 350.34c18.782 9.333 30.656 28.487 30.656 49.448V806" opacity=".095"/><path stroke="url(#i)" d="m82.382 275.832 344.767 160.384c34.096 15.861 55.897 50.035 55.897 87.617v44.696" opacity=".4"/><path stroke="url(#j)" d="m277.188 60.452 480.536 238.804c18.781 9.333 30.656 28.487 30.656 49.448v455.225" opacity=".4"/><path stroke="url(#k)" stroke-dasharray="0.16 1" d="m277.188 60.452 480.536 238.804c18.781 9.333 30.656 28.487 30.656 49.448v455.225" opacity=".84"/><path stroke="url(#l)" d="M883.71 164 413.773 402.955c-18.532 9.423-30.202 28.443-30.202 49.22V806" opacity=".4"/><path stroke="url(#m)" d="M583.903 16.271 113.965 255.226c-18.53 9.423-30.201 28.443-30.201 49.22v353.825" opacity=".4"/><path stroke="url(#n)" d="M684.76 60.452 214.822 299.407c-18.531 9.423-30.202 28.443-30.202 49.22v353.825" opacity=".4"/><path stroke="url(#o)" d="M782.854 111.535 312.916 350.491c-18.532 9.422-30.202 28.442-30.202 49.22v317.237" opacity=".4"/><path stroke="url(#p)" stroke-dasharray="0 1" d="M782.854 111.535 312.916 350.491c-18.532 9.422-30.202 28.442-30.202 49.22v317.237" opacity=".998"/><path fill="#fff" fill-opacity=".1" d="m383.571 213.703-103.62 52.465 100.166 49.703 103.62-52.465-100.166-49.703ZM678.543 164.69c-30.856 15.878-92.982 47.771-94.64 48.323l103.62 51.084 93.949-47.632-102.929-51.775Z" opacity=".4"/><path stroke="url(#q)" d="M263.372 471.884c6.297 0 116.734 53.041 191.36 89.383 18.396 8.959 39.809 9.359 58.506 1.044l203.299-90.427" opacity=".4"/><path fill="url(#r)" fill-opacity=".8" d="m216.899 203.08-.455-.89-.003.002.458.888Zm-32.737 15.757a1 1 0 1 0 .917 1.777l-.917-1.777Zm72.853-36.4-.459-.888-.002.001.461.887Zm-20.166 10.465.454.89.006-.003-.46-.887Zm-20.408 9.29-32.279 16.645.917 1.777 32.279-16.645-.917-1.777Zm81.011-41.784-40.896 21.141.919 1.776 40.896-21.142-.919-1.775Zm-40.898 21.142-20.166 10.465.921 1.774 20.167-10.465-.922-1.774Zm-20.16 10.462-19.95 10.178.91 1.781 19.949-10.179-.909-1.78Z"/><path fill="url(#s)" fill-opacity=".4" d="M876.191 268.34a1.001 1.001 0 0 0 1.223-1.583l-1.223 1.583Zm-143.482-76.091-.442.897.001.001.441-.898Zm39.376 19.329.443-.896-.003-.001-.44.897Zm92.516 46.549.612-.792-.612.792Zm-6.391-3.991.443-.897-.443.897Zm5.78 4.782 12.201 9.422 1.223-1.583-12.201-9.422-1.223 1.583ZM652.541 153.852l79.726 39.294.884-1.794-79.726-39.294-.884 1.794Zm79.727 39.295 39.376 19.329.881-1.795-39.375-19.329-.882 1.795Zm39.374 19.328 86.125 42.557.886-1.793-86.125-42.557-.886 1.793Zm93.571 44.86a39.061 39.061 0 0 0-6.56-4.096l-.886 1.793a37 37 0 0 1 6.223 3.886l1.223-1.583Z"/></g><rect width="812" height="1285" x="80.5" y="-478.5" stroke="#fff" stroke-opacity=".15" rx="56.5"/></g><defs><linearGradient id="d" x1="373.209" x2="886.198" y1="667.245" y2="258.92" gradientUnits="userSpaceOnUse"><stop stop-color="#fff" stop-opacity="0"/><stop offset=".604" stop-color="#fff"/><stop offset="1" stop-color="#fff" stop-opacity="0"/></linearGradient><linearGradient id="l" x1="331.761" x2="887.419" y1="715.568" y2="167.763" gradientUnits="userSpaceOnUse"><stop stop-color="#fff" stop-opacity="0"/><stop offset=".583" stop-color="#fff"/><stop offset="1" stop-color="#fff" stop-opacity="0"/></linearGradient><linearGradient id="f" x1="928.04" x2="342.045" y1="349.12" y2="106.591" gradientUnits="userSpaceOnUse"><stop stop-color="#fff" stop-opacity="0"/><stop offset=".302" stop-color="#fff"/><stop offset=".797" stop-color="#fff" stop-opacity="0"/></linearGradient><linearGradient id="g" x1="804.268" x2="163.09" y1="424.252" y2="145.124" gradientUnits="userSpaceOnUse"><stop stop-color="#fff" stop-opacity="0"/><stop offset=".604" stop-color="#fff"/><stop offset="1" stop-color="#fff" stop-opacity="0"/></linearGradient><linearGradient id="h" x1="804.268" x2="163.09" y1="424.252" y2="145.124" gradientUnits="userSpaceOnUse"><stop stop-color="#fff" stop-opacity="0"/><stop offset=".604" stop-color="#fff"/><stop offset="1" stop-color="#fff" stop-opacity="0"/></linearGradient><linearGradient id="i" x1="483.046" x2="153.295" y1="460.148" y2="299.677" gradientUnits="userSpaceOnUse"><stop offset=".373" stop-color="#fff"/><stop offset="1" stop-color="#fff" stop-opacity="0"/></linearGradient><linearGradient id="j" x1="825.802" x2="250.109" y1="374.631" y2="122.207" gradientUnits="userSpaceOnUse"><stop stop-color="#fff" stop-opacity="0"/><stop offset=".604" stop-color="#fff"/><stop offset="1" stop-color="#fff" stop-opacity="0"/></linearGradient><linearGradient id="k" x1="825.802" x2="250.109" y1="374.631" y2="122.207" gradientUnits="userSpaceOnUse"><stop stop-color="#fff" stop-opacity="0"/><stop offset=".604" stop-color="#fff"/><stop offset="1" stop-color="#fff" stop-opacity="0"/></linearGradient><linearGradient id="e" x1="635.713" x2="80.665" y1="725.231" y2="157.573" gradientUnits="userSpaceOnUse"><stop stop-color="#fff" stop-opacity="0"/><stop offset=".604" stop-color="#fff"/><stop offset="1" stop-color="#fff" stop-opacity="0"/></linearGradient><linearGradient id="m" x1="47.151" x2="585.752" y1="287.568" y2="19.992" gradientUnits="userSpaceOnUse"><stop stop-color="#fff" stop-opacity="0"/><stop offset=".302" stop-color="#fff"/><stop offset=".797" stop-color="#fff" stop-opacity="0"/></linearGradient><linearGradient id="n" x1="148.008" x2="686.609" y1="331.748" y2="64.173" gradientUnits="userSpaceOnUse"><stop stop-color="#fff" stop-opacity="0"/><stop offset=".604" stop-color="#fff"/><stop offset="1" stop-color="#fff" stop-opacity="0"/></linearGradient><linearGradient id="o" x1="212.943" x2="784.783" y1="394.568" y2="115.489" gradientUnits="userSpaceOnUse"><stop stop-color="#fff" stop-opacity="0"/><stop offset=".604" stop-color="#fff"/><stop offset="1" stop-color="#fff" stop-opacity="0"/></linearGradient><linearGradient id="p" x1="212.943" x2="784.783" y1="394.568" y2="115.489" gradientUnits="userSpaceOnUse"><stop stop-color="#fff" stop-opacity="0"/><stop offset=".604" stop-color="#fff"/><stop offset="1" stop-color="#fff" stop-opacity="0"/></linearGradient><linearGradient id="q" x1="489.954" x2="489.954" y1="471.884" y2="575.432" gradientUnits="userSpaceOnUse"><stop stop-color="#fff" stop-opacity="0"/><stop offset="1" stop-color="#fff"/></linearGradient><linearGradient id="r" x1="170.718" x2="297.626" y1="165.635" y2="163.393" gradientUnits="userSpaceOnUse"><stop stop-color="#fff"/><stop offset="1" stop-color="#fff" stop-opacity="0"/></linearGradient><linearGradient id="s" x1="806.943" x2="650.491" y1="348.677" y2="155.789" gradientUnits="userSpaceOnUse"><stop stop-color="#fff"/><stop offset="1" stop-color="#fff" stop-opacity="0"/></linearGradient><clipPath id="b"><rect width="811" height="1284" x="81" y="-478" fill="#fff" rx="56"/></clipPath><clipPath id="a"><path fill="#fff" d="M98.988 13.809H873.03V514.53H98.988z"/></clipPath><radialGradient id="c" cx="0" cy="0" r="1" gradientTransform="rotate(90.082 459.878 26.657) scale(3876.65 3621.11)" gradientUnits="userSpaceOnUse"><stop offset=".132" stop-color="#010214"/><stop offset=".279" stop-color="#26008A"/><stop offset=".342" stop-color="#fff"/></radialGradient></defs></svg>